<svg xmlns="http://www.w3.org/2000/svg" xmlns:svg="http://www.w3.org/2000/svg" xmlns:xlink="http://www.w3.org/1999/xlink" id="svg2403" width="24" height="24" version="1.0"><metadata id="metadata15"/><defs id="defs2405"><linearGradient id="linearGradient2392" x1="11.644" x2="11.644" y1="2.499" y2="15.003" gradientTransform="translate(-17.090416,3)" gradientUnits="userSpaceOnUse" xlink:href="#linearGradient3678"/><linearGradient id="linearGradient2395" x1="8.496" x2="8.496" y1="-.062" y2="8.083" gradientTransform="matrix(1.0526316,0,0,0.9843625,2.5789474,3.0602428)" gradientUnits="userSpaceOnUse" xlink:href="#linearGradient3678"/><linearGradient id="linearGradient3678"><stop id="stop3680" offset="0" stop-color="#fff" stop-opacity="1"/><stop id="stop3682" offset="1" stop-color="#e6e6e6" stop-opacity="1"/></linearGradient><linearGradient id="linearGradient2388" x1="159.686" x2="159.686" y1="14.404" y2="38.28" gradientTransform="matrix(-0.4100229,0,0,0.5447147,78.029995,-3.8459034)" gradientUnits="userSpaceOnUse" xlink:href="#linearGradient3678"/></defs><path d="m 12,5 c -0.554,0 -1,0.446 -1,1 l 0,4 c 0,0.554 0.446,1 1,1 0.554,0 1,-0.446 1,-1 L 13,6 C 13,5.446 12.554,5 12,5 z M 9,7 C 8.766156,7 8.5442694,7.0840437 8.375,7.21875 8.2121185,7.3560555 8.1601262,7.4051625 8.09375,7.46875 6.8149714,8.5653471 6,10.1808 6,12 c 0,3.313708 2.6862915,6 6,6 3.313709,0 6,-2.686292 6,-6 C 18,10.1808 17.185029,8.5653471 15.90625,7.46875 15.839874,7.4051625 15.787882,7.3560555 15.625,7.21875 15.455731,7.0840438 15.233844,7 15,7 c -0.552285,0 -1,0.4477153 -1,1 0,0.3110369 0.148286,0.5708515 0.375,0.75 0.04031,0.037777 0.05344,0.059382 0.125,0.125 0.924101,0.729048 1.5,1.853479 1.5,3.125 0,2.209139 -1.790861,4 -4,4 C 9.790861,16 8,14.209139 8,12 8,10.728479 8.5758988,9.604048 9.5,8.875 9.5715552,8.8093817 9.5846869,8.7877767 9.625,8.75 9.8517139,8.5708515 10,8.3110369 10,8 10,7.4477153 9.5522847,7 9,7 z" style="marker:none" id="path2991" fill="#fff" fill-opacity="1" fill-rule="nonzero" stroke="none" stroke-width="1" color="#000" display="inline" enable-background="accumulate" overflow="visible" visibility="visible"/></svg>