<svg xmlns="http://www.w3.org/2000/svg" xmlns:svg="http://www.w3.org/2000/svg" xmlns:xlink="http://www.w3.org/1999/xlink" id="svg4715" width="32" height="32" version="1.1"><defs id="defs4717"><linearGradient id="linearGradient4549"><stop id="stop4551" offset="0" stop-color="#000" stop-opacity=".272"/><stop id="stop4553" offset="1" stop-color="#000" stop-opacity=".368"/></linearGradient><linearGradient id="linearGradient3924"><stop id="stop3926" offset="0" stop-color="#fff" stop-opacity="1"/><stop id="stop3928" offset=".063" stop-color="#fff" stop-opacity=".235"/><stop id="stop3930" offset=".951" stop-color="#fff" stop-opacity=".157"/><stop id="stop3932" offset="1" stop-color="#fff" stop-opacity=".392"/></linearGradient><linearGradient id="linearGradient2867-449-88-871-390-598-476-591-434-148-57-177-641-289-620-227-114-444-680-744-4-8-69-5-4-8-426-2-9-1-4-965"><stop id="stop4036" offset="0" stop-color="#f4f4f4" stop-opacity="1"/><stop id="stop4040" offset="1" stop-color="#d0d0d0" stop-opacity="1"/></linearGradient><radialGradient id="radialGradient3163" cx="4.993" cy="43.5" r="2.5" fx="4.993" fy="43.5" gradientTransform="matrix(2.003784,0,0,1.4,27.98813,-17.4)" gradientUnits="userSpaceOnUse" xlink:href="#linearGradient3688-166-749"/><linearGradient id="linearGradient3688-166-749"><stop id="stop2883" offset="0" stop-color="#181818" stop-opacity="1"/><stop id="stop2885" offset="1" stop-color="#181818" stop-opacity="0"/></linearGradient><radialGradient id="radialGradient3165" cx="4.993" cy="43.5" r="2.5" fx="4.993" fy="43.5" gradientTransform="matrix(2.003784,0,0,1.4,-20.01187,-104.4)" gradientUnits="userSpaceOnUse" xlink:href="#linearGradient3688-464-309"/><linearGradient id="linearGradient3688-464-309"><stop id="stop2889" offset="0" stop-color="#181818" stop-opacity="1"/><stop id="stop2891" offset="1" stop-color="#181818" stop-opacity="0"/></linearGradient><linearGradient id="linearGradient3167" x1="25.058" x2="25.058" y1="47.028" y2="39.999" gradientUnits="userSpaceOnUse" xlink:href="#linearGradient3702-501-757"/><linearGradient id="linearGradient3702-501-757"><stop id="stop2895" offset="0" stop-color="#181818" stop-opacity="0"/><stop id="stop2897" offset=".5" stop-color="#181818" stop-opacity="1"/><stop id="stop2899" offset="1" stop-color="#181818" stop-opacity="0"/></linearGradient><linearGradient id="linearGradient3024" x1="30.643" x2="30.643" y1="3.916" y2="30.093" gradientTransform="translate(-27.316332,0)" gradientUnits="userSpaceOnUse" xlink:href="#linearGradient4549"/><linearGradient id="linearGradient3027" x1="24" x2="24" y1="5" y2="43" gradientTransform="matrix(0.62162164,0,0,0.62162161,1.0810837,2.0810898)" gradientUnits="userSpaceOnUse" xlink:href="#linearGradient3924"/><radialGradient id="radialGradient3035" cx="20.931" cy="8.45" r="20" fx="20.931" fy="8.45" gradientTransform="matrix(1.165708e-8,1.4381477,-1.483354,-2.6496169e-8,28.53406,-39.42143)" gradientUnits="userSpaceOnUse" xlink:href="#linearGradient2867-449-88-871-390-598-476-591-434-148-57-177-641-289-620-227-114-444-680-744-4-8-69-5-4-8-426-2-9-1-4-965"/><linearGradient id="linearGradient4011-9-9-70-61-7"><stop id="stop4013-5-4-3-8-3" offset="0" stop-color="#fff" stop-opacity="1"/><stop id="stop4015-1-5-70-9-5" offset=".508" stop-color="#fff" stop-opacity=".235"/><stop id="stop4017-7-0-13-0-1" offset=".835" stop-color="#fff" stop-opacity=".157"/><stop id="stop4019-1-12-7-0-7" offset="1" stop-color="#fff" stop-opacity=".392"/></linearGradient><linearGradient id="linearGradient4215-8-4-07-7"><stop id="stop4217-1-2-1-2" offset="0" stop-color="#e9e9e9" stop-opacity="1"/><stop id="stop4219-3-4-0-96" offset="1" stop-color="#fff" stop-opacity="1"/></linearGradient><linearGradient id="linearGradient27416-1-2"><stop id="stop27420-2-0" offset="0" stop-color="#55c1ec" stop-opacity="1"/><stop id="stop27422-3-5" offset="1" stop-color="#3689e6" stop-opacity="1"/></linearGradient><linearGradient id="linearGradient3866" x1="71.204" x2="71.204" y1="6.238" y2="44.341" gradientTransform="matrix(-0.16216213,0,0,0.16216213,32.132461,13.388016)" gradientUnits="userSpaceOnUse" xlink:href="#linearGradient4011-9-9-70-61-7"/><linearGradient id="linearGradient3869" x1="38.977" x2="38.977" y1="59.968" y2="8.093" gradientTransform="matrix(-0.15686275,0,0,0.15686275,25.519607,12.166667)" gradientUnits="userSpaceOnUse" xlink:href="#linearGradient4215-8-4-07-7"/><linearGradient id="linearGradient3884" x1="30.271" x2="30.271" y1="10.029" y2="55.053" gradientTransform="matrix(0.49999998,0,0,0.56250002,3.4e-7,-0.500002)" gradientUnits="userSpaceOnUse" xlink:href="#linearGradient27416-1-2"/></defs><metadata id="metadata4720"/><g id="g2036" display="inline" transform="matrix(0.6999997,0,0,0.44444486,-0.8000003,10.111104)"><g id="g3712" opacity=".4" transform="matrix(1.052632,0,0,1.285713,-1.263158,-13.42854)"><rect id="rect2801" width="5" height="7" x="38" y="40" fill="url(#radialGradient3163)" fill-opacity="1" stroke="none"/><rect id="rect3696" width="5" height="7" x="-10" y="-47" fill="url(#radialGradient3165)" fill-opacity="1" stroke="none" transform="scale(-1,-1)"/><rect id="rect3700" width="28" height="7" x="10" y="40" fill="url(#linearGradient3167)" fill-opacity="1" stroke="none"/></g></g><rect stroke-width="1" style="marker:none" id="rect5505" width="24" height="24" x="4" y="-29" fill="url(#radialGradient3035)" fill-opacity="1" fill-rule="nonzero" stroke="none" color="#000" display="inline" enable-background="accumulate" overflow="visible" rx="1.491" ry="1.491" transform="scale(1,-1)" visibility="visible"/><rect stroke-miterlimit="4" style="marker:none" id="rect5505-6-6" width="25" height="25" x="3.5" y="4.5" fill="none" stroke="url(#linearGradient3024)" stroke-dasharray="none" stroke-dashoffset="0" stroke-linecap="round" stroke-linejoin="round" stroke-opacity="1" stroke-width="1" color="#000" display="inline" enable-background="accumulate" overflow="visible" rx="2" ry="2" visibility="visible"/><rect id="rect6741-7" width="23" height="23" x="4.5" y="5.5" fill="none" stroke="url(#linearGradient3027)" stroke-dasharray="none" stroke-dashoffset="0" stroke-linecap="round" stroke-linejoin="round" stroke-miterlimit="4" stroke-opacity="1" stroke-width="1" rx="1" ry="1"/><path color="#000" style="marker:none" id="rect13708-6" fill="#fff" fill-opacity="1" stroke="none" stroke-width="2" d="m 11.555547,12.999993 c -2.462227,0 -4.444453,1.982226 -4.444453,4.444453 0,2.462227 1.982226,4.444454 4.444453,4.444454 l 8.888908,0 c 2.462228,0 4.444453,-1.982227 4.444453,-4.444454 0,-2.462227 -1.982225,-4.444453 -4.444453,-4.444453 z" display="inline" enable-background="accumulate" opacity=".2" overflow="visible" visibility="visible"/><path color="#000" style="marker:none" id="rect13708" fill="url(#linearGradient3884)" fill-opacity="1" stroke="none" stroke-width="2" d="M 11.499999,12.999999 C 9.0069997,12.999999 7,15.006999 7,17.499999 7,19.992998 9.0069997,22 11.499999,22 l 9.000002,0 C 22.993001,22 25,19.992999 25,17.499999 c 0,-2.493 -2.006999,-4.5 -4.499999,-4.5 z" display="inline" enable-background="accumulate" overflow="visible" visibility="visible"/><path color="#000" style="marker:none" id="rect13708-7" fill="#0e4774" fill-opacity="1" fill-rule="nonzero" stroke="none" stroke-width="2.409" d="m 11.500002,12.999999 c -2.4930003,0 -4.5000007,2.007 -4.5000007,4.500002 0,0.07555 0.010419,0.150381 0.014064,0.224999 0.1166094,-2.387527 2.0684925,-4.275001 4.4859387,-4.275001 l 9.000004,0 c 2.417447,0 4.36933,1.887474 4.485941,4.275001 0.0036,-0.07462 0.01405,-0.149447 0.01405,-0.224999 0,-2.493002 -2.006999,-4.500002 -4.500001,-4.500002 l -9.000004,0 z" display="inline" enable-background="accumulate" opacity=".3" overflow="visible" visibility="visible"/><path color="#000" style="marker:none" id="rect3136" fill="#0e4774" fill-opacity="1" fill-rule="nonzero" stroke="none" stroke-width="2.71" d="m 11.521127,12.999999 c -2.4350653,0 -4.403531,1.989304 -4.521127,4.505639 0.1167919,2.516336 2.0717286,4.505641 4.492957,4.505641 l 0.478873,0 c -2.5111694,0 -4.5352098,-1.903752 -4.5352098,-4.268501 0,-2.36475 2.0240404,-4.268501 4.5352098,-4.268501 l 8.056339,0 c 2.511168,0 4.53521,1.903751 4.53521,4.268501 0,2.364749 -2.024042,4.268501 -4.53521,4.268501 l 0.478872,0 c 2.421229,0 4.376166,-1.989305 4.492959,-4.505641 -0.117597,-2.516335 -2.086064,-4.505639 -4.521128,-4.505639 l -8.957745,0 z" display="inline" enable-background="accumulate" opacity=".15" overflow="visible" visibility="visible"/><path d="m 6.222204,7.222202 a 0.44444569,0.44444569 0 0 1 -0.888891,0 0.44444569,0.44444569 0 1 1 0.888891,0 z" style="marker:none" id="path4356-7-9" fill="#fff" fill-opacity="1" fill-rule="evenodd" stroke="none" stroke-width=".338" color="#000" display="inline" enable-background="accumulate" overflow="visible" visibility="visible"/><path color="#000" style="marker:none" id="path4356-9" fill="#000" fill-opacity="1" fill-rule="evenodd" stroke="none" stroke-width=".338" d="m 6.222204,6.777757 a 0.44444569,0.44444569 0 0 1 -0.888891,0 0.44444569,0.44444569 0 1 1 0.888891,0 z" display="inline" enable-background="accumulate" opacity=".3" overflow="visible" visibility="visible"/><path d="m 26.66669,7.222202 a 0.44444561,0.44444561 0 0 1 -0.88889,0 0.44444561,0.44444561 0 1 1 0.88889,0 z" style="marker:none" id="path4356-7-6-7" fill="#fff" fill-opacity="1" fill-rule="evenodd" stroke="none" stroke-width=".338" color="#000" display="inline" enable-background="accumulate" overflow="visible" visibility="visible"/><path color="#000" style="marker:none" id="path4356-8-9" fill="#000" fill-opacity="1" fill-rule="evenodd" stroke="none" stroke-width=".338" d="m 26.66669,6.777757 a 0.44444561,0.44444561 0 0 1 -0.88889,0 0.44444561,0.44444561 0 1 1 0.88889,0 z" display="inline" enable-background="accumulate" opacity=".3" overflow="visible" visibility="visible"/><path d="m 6.222204,27.66669 a 0.44444569,0.44444569 0 0 1 -0.888891,0 0.44444569,0.44444569 0 1 1 0.888891,0 z" style="marker:none" id="path4356-7-9-3" fill="#fff" fill-opacity="1" fill-rule="evenodd" stroke="none" stroke-width=".338" color="#000" display="inline" enable-background="accumulate" overflow="visible" visibility="visible"/><path color="#000" style="marker:none" id="path4356-9-1" fill="#000" fill-opacity="1" fill-rule="evenodd" stroke="none" stroke-width=".338" d="m 6.222204,27.222244 a 0.44444569,0.44444569 0 0 1 -0.888891,0 0.44444569,0.44444569 0 1 1 0.888891,0 z" display="inline" enable-background="accumulate" opacity=".3" overflow="visible" visibility="visible"/><path d="m 26.66669,27.66669 a 0.44444561,0.44444561 0 0 1 -0.88889,0 0.44444561,0.44444561 0 1 1 0.88889,0 z" style="marker:none" id="path4356-7-6-7-1" fill="#fff" fill-opacity="1" fill-rule="evenodd" stroke="none" stroke-width=".338" color="#000" display="inline" enable-background="accumulate" overflow="visible" visibility="visible"/><path color="#000" style="marker:none" id="path4356-8-9-8" fill="#000" fill-opacity="1" fill-rule="evenodd" stroke="none" stroke-width=".338" d="m 26.66669,27.222244 a 0.44444561,0.44444561 0 0 1 -0.88889,0 0.44444561,0.44444561 0 1 1 0.88889,0 z" display="inline" enable-background="accumulate" opacity=".3" overflow="visible" visibility="visible"/><path color="#000" style="marker:none" id="path2555-7-1-9-4-9" fill="#000" fill-opacity="1" fill-rule="nonzero" stroke="none" stroke-width="2" d="M 20.5,14 C 22.982943,14 25,16.017054 25,18.500002 25,20.982946 22.982943,23 20.5,23 18.017052,23 15.999996,20.982946 16,18.500002 16,16.017054 18.017052,14 20.5,14 z" display="inline" enable-background="accumulate" opacity=".15" overflow="visible" visibility="visible"/><path id="path2555-7-1-9-4" fill="url(#linearGradient3869)" fill-opacity="1" fill-rule="nonzero" stroke="none" stroke-width="1" d="m 20.5,13.5 c 2.207061,0 4,1.792938 4,4 0,2.207064 -1.792939,4.000001 -4,4.000001 -2.207064,0 -4.000004,-1.792937 -4,-4.000001 0,-2.207062 1.792936,-4 4,-4 z" color="#000" display="inline" enable-background="accumulate" overflow="visible" visibility="visible" style="marker:none"/><path stroke-opacity="1" style="marker:none" id="path8655-6-0-5-2" fill="none" stroke="url(#linearGradient3866)" stroke-dasharray="none" stroke-dashoffset="0" stroke-linecap="round" stroke-linejoin="round" stroke-miterlimit="4" stroke-width="1" d="M 17.5,17.499893 C 17.5,19.156804 18.843246,20.5 20.499963,20.5 22.156831,20.5 23.5,19.156787 23.5,17.499893 c 0,-1.656829 -1.343169,-2.999892 -3.000037,-2.999892 -1.656717,0 -2.999963,1.343063 -2.999963,2.999892 l 0,0 z" color="#000" display="inline" enable-background="accumulate" overflow="visible" visibility="visible"/><path stroke-width="1" style="marker:none" id="path2555-7-1-9-9-41" fill="none" stroke="#656565" stroke-dasharray="none" stroke-dashoffset="0" stroke-linecap="round" stroke-linejoin="round" stroke-miterlimit="4" stroke-opacity="1" d="m 20.500001,13.500001 c 2.207063,0 3.999999,1.792937 3.999999,4 C 24.5,19.707064 22.707064,21.5 20.500001,21.5 18.292936,21.5 16.499996,19.707064 16.5,17.500001 c 0,-2.207063 1.792936,-4 4.000001,-4 z" color="#000" display="inline" enable-background="accumulate" opacity=".5" overflow="visible" visibility="visible"/></svg>